<svg width="197" height="35" viewBox="0 0 197 35" fill="none" xmlns="http://www.w3.org/2000/svg">
<path d="M28.5535 0.0664062L24.835 6.51375L35.3267 24.6714L36.854 22.1057L27.8231 6.57944L31.5417 0.132259H28.5535V0.0664062Z" fill="#161616"/>
<path d="M22.5103 0.0664062L12.0186 18.2242H15.0067L25.4985 0.0664062H22.5103Z" fill="#161616"/>
<path d="M16.5345 0.0658532L7.50363 15.5921H0L1.52731 18.1578H9.03086L19.5226 0H16.5345V0.0658532Z" fill="#161616"/>
<path d="M25.4991 23.3557H4.44919L2.92188 20.79H23.9718L25.4991 23.3557Z" fill="#161616"/>
<path d="M22.5116 18.1578H17.9961L20.2538 14.2764L22.5116 18.1578Z" fill="#161616"/>
<path d="M5.97656 25.9863L7.50388 28.5522H25.4992L29.2842 34.9995L30.8115 32.4337L27.0265 25.9863H5.97656Z" fill="#161616"/>
<path d="M33.8003 27.2369L32.273 29.8026L21.7812 11.645L23.3085 9.0791L33.8003 27.2369Z" fill="#161616"/>
<path d="M33.7998 27.2363L33.0693 28.5521L33.7998 27.2363Z" fill="#161616"/>
<path d="M131.214 17.5664C131.214 25.3952 124.773 31.7767 116.804 31.7767C108.902 31.7767 102.461 25.3952 102.461 17.5005C102.461 9.60584 108.902 3.29004 116.87 3.29004C122.05 3.29004 126.897 6.11903 129.421 10.5927L124.374 13.0927C121.917 9.01377 116.538 7.63214 112.355 10.0663C108.238 12.5005 106.844 17.8295 109.3 21.9742C111.757 26.0531 117.136 27.4346 121.32 25.0004C122.78 24.1451 123.909 22.8952 124.64 21.4478H116.87V15.8558H131.081C131.147 16.3821 131.214 16.9743 131.214 17.5664Z" fill="#161616"/>
<path d="M99.9375 9.14577V3.55371H76.9619V31.514H82.5398V20.3299H98.211V14.7378H82.5398V9.14577H99.9375Z" fill="#161616"/>
<path d="M60.5598 3.55371H53.1226L41.2363 31.514H47.3455L49.9353 25.3956H63.7471L66.3369 31.514H72.446L60.5598 3.55371ZM52.3258 19.7377L56.8412 9.07992L61.3566 19.7377H52.3258Z" fill="#161616"/>
<path d="M141.639 8.02615H138.916L138.451 9.14453H137.521L139.779 3.61816H140.842L143.099 9.14453H142.17L141.639 8.02615ZM139.182 7.30241H141.439L140.31 4.34191L139.182 7.30241Z" fill="#161616"/>
<path d="M145.157 3.68457H146.02V7.03987C146.02 7.96091 146.552 8.61874 147.548 8.61874C148.544 8.61874 149.075 8.0267 149.075 7.03987V3.68457H149.938V7.03987C149.938 8.42144 149.141 9.34248 147.614 9.34248C146.02 9.34248 145.224 8.42144 145.224 7.03987L145.157 3.68457Z" fill="#161616"/>
<path d="M154.189 4.40831H152.463V3.68457H156.779V4.40831H155.053V9.21078H154.189V4.40831Z" fill="#161616"/>
<path d="M163.22 6.71092H160.099V9.21078H159.235V3.68457H160.099V5.98718H163.22V3.68457H164.083V9.21078H163.22V6.71092Z" fill="#161616"/>
<path d="M167.005 3.68457H170.79V4.40831H167.868V6.05304H170.723V6.77662H167.868V8.48719H170.79V9.21078H167.005V3.68457Z" fill="#161616"/>
<path d="M174.309 4.9345V9.21078H173.445V3.68457H174.309L177.363 7.8293V3.68457H178.226V9.21078H177.43L174.309 4.9345Z" fill="#161616"/>
<path d="M182.543 4.40831H180.816V3.68457H185.133V4.40831H183.406V9.21078H182.543V4.40831Z" fill="#161616"/>
<path d="M188.519 3.68457H187.655V9.21078H188.519V3.68457Z" fill="#161616"/>
<path d="M191.176 6.44836C191.11 4.93521 192.305 3.6195 193.899 3.55371C193.965 3.55371 194.032 3.55371 194.032 3.55371C194.961 3.55371 195.758 3.94848 196.29 4.73794L195.559 5.13258C195.227 4.60627 194.629 4.34315 194.032 4.34315C192.903 4.34315 192.04 5.19837 192.04 6.44836C191.973 7.56677 192.837 8.48778 193.965 8.55357C194.032 8.55357 194.032 8.55357 194.098 8.55357C194.696 8.55357 195.294 8.22466 195.626 7.76414L196.356 8.15894C195.891 8.88261 195.028 9.34317 194.098 9.34317C192.571 9.40896 191.243 8.1589 191.243 6.64576C191.176 6.51418 191.176 6.51415 191.176 6.44836Z" fill="#161616"/>
<path d="M137.521 14.7373H141.306V15.4609H138.385V17.1056H141.24V17.8294H138.385V20.2635H137.521V14.7373Z" fill="#161616"/>
<path d="M144.759 14.7373H143.896V20.2635H144.759V14.7373Z" fill="#161616"/>
<path d="M148.477 16.0528V20.3291H147.614V14.8027H148.477L151.532 18.9475V14.8027H152.395V20.3291H151.598L148.477 16.0528Z" fill="#161616"/>
<path d="M158.903 19.1451H156.181L155.716 20.2635H154.786L157.044 14.7373H158.106L160.364 20.2635H159.434L158.903 19.1451ZM156.38 18.4214H158.638L157.509 15.4609L156.38 18.4214Z" fill="#161616"/>
<path d="M163.419 16.0528V20.3291H162.556V14.8027H163.419L166.473 18.9475V14.8027H167.337V20.3291H166.54L163.419 16.0528Z" fill="#161616"/>
<path d="M170.058 17.5001C169.992 15.987 171.187 14.6713 172.781 14.6055C172.847 14.6055 172.914 14.6055 172.914 14.6055C173.843 14.6055 174.64 15.0001 175.171 15.7895L174.441 16.1843C174.109 15.658 173.511 15.3949 172.914 15.3949C171.785 15.3949 170.922 16.2501 170.922 17.5001C170.855 18.6185 171.718 19.5395 172.847 19.6053C172.914 19.6053 172.914 19.6053 172.98 19.6053C173.578 19.6053 174.175 19.2764 174.507 18.8159L175.238 19.2107C174.773 19.9344 173.91 20.3948 172.98 20.3948C171.453 20.4606 170.125 19.2107 170.125 17.6975C170.058 17.6317 170.058 17.5659 170.058 17.5001Z" fill="#161616"/>
<path d="M178.559 14.7373H177.695V20.2635H178.559V14.7373Z" fill="#161616"/>
<path d="M185 19.1451H182.277L181.812 20.2635H180.883L183.141 14.7373H184.203L186.461 20.2635H185.531L185 19.1451ZM182.477 18.4214H184.734L183.605 15.4609L182.477 18.4214Z" fill="#161616"/>
<path d="M188.719 14.7373H189.582V19.5399H192.105V20.2635H188.719V14.7373Z" fill="#161616"/>
<path d="M140.443 25.7236C141.306 25.7236 142.169 26.1183 142.634 26.842L141.97 27.2368C141.572 26.7763 141.04 26.5131 140.443 26.5131C139.314 26.5131 138.384 27.3683 138.384 28.4867C138.384 28.5525 138.384 28.5525 138.384 28.6183C138.318 29.7367 139.181 30.6579 140.31 30.7237C140.376 30.7237 140.376 30.7237 140.443 30.7237C140.974 30.7237 141.439 30.5263 141.837 30.1973V29.2105H140.044V28.4867H142.701V30.5263C142.103 31.1841 141.306 31.5131 140.443 31.5131C138.916 31.5789 137.587 30.3288 137.521 28.8157C137.521 28.7499 137.521 28.6841 137.521 28.6183C137.455 27.1051 138.716 25.7894 140.244 25.7236C140.31 25.7236 140.376 25.7236 140.443 25.7236Z" fill="#161616"/>
<path d="M147.35 29.2761H146.287V31.3815H145.424V25.8551H147.814C148.744 25.7893 149.541 26.4472 149.607 27.3683C149.607 27.4341 149.607 27.4999 149.607 27.5657C149.674 28.3552 149.01 29.0788 148.213 29.2104L149.674 31.4472H148.678L147.35 29.2761ZM147.682 26.5789H146.287V28.5525H147.682C148.213 28.5525 148.678 28.1577 148.744 27.6314C148.744 27.1051 148.346 26.6446 147.814 26.5789C147.748 26.5789 147.748 26.5789 147.682 26.5789Z" fill="#161616"/>
<path d="M154.92 25.7236C156.58 25.7236 157.775 26.9736 157.775 28.6183C157.775 30.263 156.646 31.5131 154.92 31.5131C153.26 31.5131 152.131 30.263 152.131 28.6183C152.131 26.9736 153.26 25.7236 154.92 25.7236ZM154.92 26.5131C153.725 26.5131 152.994 27.4341 152.994 28.6183C152.994 29.8025 153.725 30.7237 154.92 30.7237C156.115 30.7237 156.845 29.8025 156.845 28.6183C156.845 27.4341 156.115 26.5131 154.92 26.5131Z" fill="#161616"/>
<path d="M160.431 25.8555H161.294V29.2108C161.294 30.1318 161.825 30.7896 162.821 30.7896C163.817 30.7896 164.348 30.1976 164.348 29.2108V25.8555H165.212V29.2108C165.212 30.5923 164.415 31.5134 162.888 31.5134C161.294 31.5134 160.497 30.5923 160.497 29.2108L160.431 25.8555Z" fill="#161616"/>
<path d="M168.067 25.8551H170.458C171.388 25.7893 172.184 26.4472 172.251 27.3683C172.251 27.4341 172.251 27.4999 172.251 27.5657C172.251 28.4867 171.52 29.2761 170.657 29.2761C170.591 29.2761 170.524 29.2761 170.524 29.2761H168.997V31.3815H168.134V25.8551H168.067ZM170.325 26.5789H168.931V28.5525H170.325C170.856 28.5525 171.321 28.1577 171.388 27.6314C171.454 27.1051 170.989 26.6446 170.458 26.5789C170.391 26.5789 170.325 26.5789 170.325 26.5789Z" fill="#161616"/>
</svg>
