<svg width="129" height="24" viewBox="0 0 129 24" fill="none" xmlns="http://www.w3.org/2000/svg">
<path d="M18.6921 0.043457L16.2578 4.28867L23.126 16.2444L24.1257 14.5551L18.2139 4.33192L20.6482 0.0868176H18.6921V0.043457Z" fill="white"/>
<path d="M14.7354 0.043457L7.86719 11.9993H9.8233L16.6915 0.043457H14.7354Z" fill="white"/>
<path d="M10.8239 0.0433606L4.91205 10.2665H0L0.999814 11.9559H5.91181L12.78 0H10.8239V0.0433606Z" fill="white"/>
<path d="M16.6917 15.3778H2.91192L1.91211 13.6885H15.6918L16.6917 15.3778Z" fill="white"/>
<path d="M14.7372 11.9559H11.7812L13.2592 9.40015L14.7372 11.9559Z" fill="white"/>
<path d="M3.91217 17.1106L4.91198 18.8001H16.6921L19.1699 23.0453L20.1697 21.3558L17.692 17.1106H3.91217Z" fill="white"/>
<path d="M22.1257 17.9339L21.1259 19.6233L14.2578 7.6675L15.2575 5.97803L22.1257 17.9339Z" fill="white"/>
<path d="M22.1266 17.9338L21.6484 18.8002L22.1266 17.9338Z" fill="white"/>
<path d="M85.8945 11.3999C85.8945 16.5548 81.678 20.7566 76.4617 20.7566C71.2888 20.7566 67.0723 16.5547 67.0723 11.3565C67.0723 6.15835 71.2888 1.99976 76.5051 1.99976C79.8957 1.99976 83.069 3.86248 84.7208 6.80813L81.4172 8.45424C79.8088 5.76851 76.2878 4.85878 73.5492 6.46156C70.8541 8.06434 69.9413 11.5732 71.5497 14.3022C73.158 16.9879 76.679 17.8976 79.4176 16.2948C80.3739 15.7316 81.1129 14.9086 81.5911 13.9556H76.5051V10.2736H85.8076C85.8511 10.6201 85.8945 11.01 85.8945 11.3999Z" fill="white"/>
<path d="M65.4212 6.02165V2.3396H50.3809V20.7499H54.0323V13.3858H64.291V9.70371H54.0323V6.02165H65.4212Z" fill="white"/>
<path d="M39.6438 2.34009H34.7752L26.9942 20.7504H30.9934L32.6887 16.7217H41.7303L43.4256 20.7504H47.4248L39.6438 2.34009ZM34.2536 12.9963L37.2095 5.97878L40.1654 12.9963H34.2536Z" fill="white"/>
<path d="M92.7206 5.28522H90.9383L90.634 6.02161H90.0255L91.5034 2.38281H92.1989L93.6769 6.02161H93.0683L92.7206 5.28522ZM91.1122 4.80868H92.5901L91.8512 2.85936L91.1122 4.80868Z" fill="white"/>
<path d="M95.0236 2.42627H95.5887V4.63554C95.5887 5.242 95.9364 5.67514 96.5884 5.67514C97.2405 5.67514 97.5882 5.28532 97.5882 4.63554V2.42627H98.1534V4.63554C98.1534 5.54523 97.6317 6.15168 96.6319 6.15168C95.5887 6.15168 95.067 5.54523 95.067 4.63554L95.0236 2.42627Z" fill="white"/>
<path d="M100.935 2.90281H99.8047V2.42627H102.63V2.90281H101.5V6.06496H100.935V2.90281Z" fill="white"/>
<path d="M106.846 4.41895H104.803V6.06496H104.238V2.42627H104.803V3.94241H106.846V2.42627H107.412V6.06496H106.846V4.41895Z" fill="white"/>
<path d="M109.324 2.42627H111.802V2.90281H109.889V3.98577H111.759V4.46221H109.889V5.58853H111.802V6.06496H109.324V2.42627Z" fill="white"/>
<path d="M114.106 3.24927V6.06496H113.541V2.42627H114.106L116.106 5.15534V2.42627H116.671V6.06496H116.149L114.106 3.24927Z" fill="white"/>
<path d="M119.497 2.90281H118.367V2.42627H121.193V2.90281H120.063V6.06496H119.497V2.90281Z" fill="white"/>
<path d="M123.409 2.42627H122.844V6.06496H123.409V2.42627Z" fill="white"/>
<path d="M125.148 4.24556C125.105 3.24924 125.887 2.38292 126.931 2.3396C126.974 2.3396 127.017 2.3396 127.017 2.3396C127.626 2.3396 128.148 2.59953 128.495 3.11935L128.017 3.3792C127.8 3.03265 127.409 2.8594 127.017 2.8594C126.278 2.8594 125.713 3.42251 125.713 4.24556C125.67 4.98197 126.235 5.58841 126.974 5.63173C127.017 5.63173 127.017 5.63173 127.061 5.63173C127.452 5.63173 127.843 5.41516 128.061 5.11193L128.539 5.37188C128.235 5.84838 127.67 6.15163 127.061 6.15163C126.061 6.19495 125.192 5.37186 125.192 4.37554C125.148 4.2889 125.148 4.28888 125.148 4.24556Z" fill="white"/>
<path d="M90.0255 9.70361H92.5032V10.1801H90.5905V11.263H92.4597V11.7396H90.5905V13.3423H90.0255V9.70361Z" fill="white"/>
<path d="M94.7624 9.70361H94.1973V13.3423H94.7624V9.70361Z" fill="white"/>
<path d="M97.198 10.5699V13.3856H96.6329V9.74683H97.198L99.1976 12.4759V9.74683H99.7627V13.3856H99.241L97.198 10.5699Z" fill="white"/>
<path d="M104.021 12.6059H102.239L101.935 13.3423H101.326L102.804 9.70361H103.5L104.978 13.3423H104.369L104.021 12.6059ZM102.369 12.1294H103.847L103.108 10.1801L102.369 12.1294Z" fill="white"/>
<path d="M106.977 10.5699V13.3856H106.412V9.74683H106.977L108.977 12.4759V9.74683H109.542V13.3856H109.02L106.977 10.5699Z" fill="white"/>
<path d="M111.324 11.5232C111.281 10.5268 112.063 9.66051 113.106 9.61719C113.15 9.61719 113.193 9.61719 113.193 9.61719C113.802 9.61719 114.323 9.87701 114.671 10.3968L114.193 10.6568C113.976 10.3102 113.584 10.137 113.193 10.137C112.454 10.137 111.889 10.7001 111.889 11.5232C111.846 12.2596 112.411 12.866 113.15 12.9093C113.193 12.9093 113.193 12.9093 113.237 12.9093C113.628 12.9093 114.019 12.6927 114.237 12.3895L114.715 12.6495C114.41 13.126 113.845 13.4291 113.237 13.4291C112.237 13.4724 111.368 12.6494 111.368 11.6531C111.324 11.6098 111.324 11.5665 111.324 11.5232Z" fill="white"/>
<path d="M116.889 9.70361H116.324V13.3423H116.889V9.70361Z" fill="white"/>
<path d="M121.105 12.6059H119.323L119.019 13.3423H118.41L119.888 9.70361H120.584L122.062 13.3423H121.453L121.105 12.6059ZM119.453 12.1294H120.931L120.192 10.1801L119.453 12.1294Z" fill="white"/>
<path d="M123.539 9.70361H124.104V12.8659H125.756V13.3423H123.539V9.70361Z" fill="white"/>
<path d="M91.9378 16.9377C92.5029 16.9377 93.068 17.1976 93.3723 17.6741L92.9376 17.9341C92.6768 17.6309 92.329 17.4575 91.9378 17.4575C91.1988 17.4575 90.5902 18.0207 90.5902 18.7571C90.5902 18.8004 90.5902 18.8004 90.5902 18.8437C90.5468 19.5801 91.1119 20.1867 91.8508 20.23C91.8943 20.23 91.8943 20.23 91.9378 20.23C92.2855 20.23 92.5898 20.1 92.8506 19.8834V19.2336H91.677V18.7571H93.4157V20.1C93.0245 20.5332 92.5029 20.7498 91.9378 20.7498C90.938 20.7931 90.0686 19.97 90.0251 18.9737C90.0251 18.9304 90.0251 18.887 90.0251 18.8437C89.9817 17.8474 90.8076 16.9811 91.8074 16.9377C91.8508 16.9377 91.8943 16.9377 91.9378 16.9377Z" fill="white"/>
<path d="M96.4581 19.277H95.7626V20.6633H95.1975V17.0245H96.7624C97.371 16.9811 97.8926 17.4144 97.9361 18.0208C97.9361 18.0641 97.9361 18.1075 97.9361 18.1508C97.9795 18.6706 97.5448 19.1471 97.0232 19.2337L97.9795 20.7065H97.3275L96.4581 19.277ZM96.6755 17.501H95.7626V18.8006H96.6755C97.0232 18.8006 97.3275 18.5406 97.371 18.194C97.371 17.8475 97.1102 17.5443 96.7624 17.501C96.7189 17.501 96.7189 17.501 96.6755 17.501Z" fill="white"/>
<path d="M101.414 16.9377C102.5 16.9377 103.283 17.7607 103.283 18.8437C103.283 19.9267 102.544 20.7498 101.414 20.7498C100.327 20.7498 99.588 19.9267 99.588 18.8437C99.588 17.7607 100.327 16.9377 101.414 16.9377ZM101.414 17.4575C100.631 17.4575 100.153 18.064 100.153 18.8437C100.153 19.6234 100.631 20.23 101.414 20.23C102.196 20.23 102.674 19.6234 102.674 18.8437C102.674 18.064 102.196 17.4575 101.414 17.4575Z" fill="white"/>
<path d="M105.022 17.0244H105.587V19.2337C105.587 19.8401 105.934 20.2733 106.586 20.2733C107.239 20.2733 107.586 19.8835 107.586 19.2337V17.0244H108.151V19.2337C108.151 20.1434 107.63 20.7498 106.63 20.7498C105.587 20.7498 105.065 20.1434 105.065 19.2337L105.022 17.0244Z" fill="white"/>
<path d="M110.022 17.0245H111.586C112.195 16.9811 112.717 17.4144 112.76 18.0208C112.76 18.0641 112.76 18.1075 112.76 18.1508C112.76 18.7572 112.282 19.277 111.717 19.277C111.673 19.277 111.63 19.277 111.63 19.277H110.63V20.6633H110.065V17.0245H110.022ZM111.499 17.501H110.587V18.8006H111.499C111.847 18.8006 112.152 18.5406 112.195 18.194C112.238 17.8475 111.934 17.5443 111.586 17.501C111.543 17.501 111.499 17.501 111.499 17.501Z" fill="white"/>
</svg>
