<svg width="197" height="35" viewBox="0 0 197 35" fill="none" xmlns="http://www.w3.org/2000/svg">
<path d="M28.5526 0.0664062L24.834 6.51375L35.3258 24.6714L36.853 22.1057L27.8221 6.57944L31.5407 0.132259H28.5526V0.0664062Z" fill="white"/>
<path d="M22.5113 0.0664062L12.0195 18.2242H15.0077L25.4995 0.0664062H22.5113Z" fill="white"/>
<path d="M16.5345 0.0658532L7.50363 15.5921H0L1.52731 18.1578H9.03086L19.5226 0H16.5345V0.0658532Z" fill="white"/>
<path d="M25.4991 23.3553H4.44919L2.92188 20.7896H23.9718L25.4991 23.3553Z" fill="white"/>
<path d="M22.5116 18.1583H17.9961L20.2538 14.2769L22.5116 18.1583Z" fill="white"/>
<path d="M5.97656 25.9868L7.50388 28.5527H25.4992L29.2842 35L30.8115 32.4342L27.0265 25.9868H5.97656Z" fill="white"/>
<path d="M33.8003 27.2364L32.273 29.8021L21.7812 11.6445L23.3085 9.07861L33.8003 27.2364Z" fill="white"/>
<path d="M33.8007 27.2368L33.0703 28.5526L33.8007 27.2368Z" fill="white"/>
<path d="M131.214 17.5664C131.214 25.3952 124.773 31.7767 116.804 31.7767C108.902 31.7767 102.461 25.3952 102.461 17.5005C102.461 9.60584 108.902 3.29004 116.87 3.29004C122.05 3.29004 126.897 6.11903 129.421 10.5927L124.374 13.0927C121.917 9.01377 116.538 7.63214 112.355 10.0663C108.238 12.5005 106.844 17.8295 109.3 21.9742C111.757 26.0531 117.136 27.4346 121.32 25.0004C122.78 24.1451 123.909 22.8952 124.64 21.4478H116.87V15.8558H131.081C131.147 16.3821 131.214 16.9743 131.214 17.5664Z" fill="white"/>
<path d="M99.9365 9.14577V3.55371H76.9609V31.514H82.5388V20.3299H98.2101V14.7378H82.5388V9.14577H99.9365Z" fill="white"/>
<path d="M60.5598 3.55371H53.1226L41.2363 31.514H47.3455L49.9353 25.3956H63.7471L66.3369 31.514H72.446L60.5598 3.55371ZM52.3258 19.7377L56.8412 9.07992L61.3566 19.7377H52.3258Z" fill="white"/>
<path d="M141.639 8.02664H138.916L138.451 9.14502H137.521L139.779 3.61865H140.842L143.099 9.14502H142.17L141.639 8.02664ZM139.182 7.3029H141.439L140.31 4.34239L139.182 7.3029Z" fill="white"/>
<path d="M145.158 3.68457H146.021V7.03987C146.021 7.96091 146.553 8.61874 147.549 8.61874C148.545 8.61874 149.076 8.0267 149.076 7.03987V3.68457H149.939V7.03987C149.939 8.42144 149.142 9.34248 147.615 9.34248C146.021 9.34248 145.225 8.42144 145.225 7.03987L145.158 3.68457Z" fill="white"/>
<path d="M154.189 4.40831H152.463V3.68457H156.779V4.40831H155.053V9.21078H154.189V4.40831Z" fill="white"/>
<path d="M163.221 6.71092H160.1V9.21078H159.236V3.68457H160.1V5.98718H163.221V3.68457H164.084V9.21078H163.221V6.71092Z" fill="white"/>
<path d="M167.004 3.68457H170.789V4.40831H167.867V6.05304H170.722V6.77662H167.867V8.48719H170.789V9.21078H167.004V3.68457Z" fill="white"/>
<path d="M174.309 4.9345V9.21078H173.445V3.68457H174.309L177.363 7.8293V3.68457H178.226V9.21078H177.43L174.309 4.9345Z" fill="white"/>
<path d="M182.543 4.40831H180.816V3.68457H185.133V4.40831H183.406V9.21078H182.543V4.40831Z" fill="white"/>
<path d="M188.519 3.68457H187.656V9.21078H188.519V3.68457Z" fill="white"/>
<path d="M191.176 6.44836C191.11 4.93521 192.305 3.6195 193.899 3.55371C193.965 3.55371 194.032 3.55371 194.032 3.55371C194.961 3.55371 195.758 3.94848 196.29 4.73794L195.559 5.13258C195.227 4.60627 194.629 4.34315 194.032 4.34315C192.903 4.34315 192.04 5.19837 192.04 6.44836C191.973 7.56677 192.837 8.48778 193.965 8.55357C194.032 8.55357 194.032 8.55357 194.098 8.55357C194.696 8.55357 195.294 8.22466 195.626 7.76414L196.356 8.15894C195.891 8.88261 195.028 9.34317 194.098 9.34317C192.571 9.40896 191.243 8.1589 191.243 6.64576C191.176 6.51418 191.176 6.51415 191.176 6.44836Z" fill="white"/>
<path d="M137.521 14.7373H141.306V15.4609H138.385V17.1056H141.24V17.8294H138.385V20.2635H137.521V14.7373Z" fill="white"/>
<path d="M144.76 14.7373H143.896V20.2635H144.76V14.7373Z" fill="white"/>
<path d="M148.478 16.0533V20.3296H147.615V14.8032H148.478L151.533 18.948V14.8032H152.396V20.3296H151.599L148.478 16.0533Z" fill="white"/>
<path d="M158.902 19.1451H156.18L155.715 20.2635H154.785L157.043 14.7373H158.105L160.363 20.2635H159.433L158.902 19.1451ZM156.379 18.4214H158.637L157.508 15.4609L156.379 18.4214Z" fill="white"/>
<path d="M163.418 16.0533V20.3296H162.555V14.8032H163.418L166.472 18.948V14.8032H167.336V20.3296H166.539L163.418 16.0533Z" fill="white"/>
<path d="M170.059 17.5001C169.993 15.987 171.188 14.6713 172.782 14.6055C172.848 14.6055 172.915 14.6055 172.915 14.6055C173.844 14.6055 174.641 15.0001 175.172 15.7895L174.442 16.1843C174.11 15.658 173.512 15.3949 172.915 15.3949C171.786 15.3949 170.923 16.2501 170.923 17.5001C170.856 18.6185 171.719 19.5395 172.848 19.6053C172.915 19.6053 172.915 19.6053 172.981 19.6053C173.579 19.6053 174.176 19.2764 174.508 18.8159L175.239 19.2107C174.774 19.9344 173.911 20.3948 172.981 20.3948C171.454 20.4606 170.126 19.2107 170.126 17.6975C170.059 17.6317 170.059 17.5659 170.059 17.5001Z" fill="white"/>
<path d="M178.559 14.7373H177.695V20.2635H178.559V14.7373Z" fill="white"/>
<path d="M185 19.1451H182.277L181.812 20.2635H180.883L183.141 14.7373H184.203L186.461 20.2635H185.531L185 19.1451ZM182.477 18.4214H184.734L183.605 15.4609L182.477 18.4214Z" fill="white"/>
<path d="M188.719 14.7373H189.582V19.5399H192.105V20.2635H188.719V14.7373Z" fill="white"/>
<path d="M140.444 25.7236C141.307 25.7236 142.17 26.1183 142.635 26.842L141.971 27.2368C141.573 26.7763 141.041 26.5131 140.444 26.5131C139.315 26.5131 138.385 27.3683 138.385 28.4867C138.385 28.5525 138.385 28.5525 138.385 28.6183C138.319 29.7367 139.182 30.6579 140.311 30.7237C140.377 30.7237 140.377 30.7237 140.444 30.7237C140.975 30.7237 141.44 30.5263 141.838 30.1973V29.2105H140.045V28.4867H142.701V30.5263C142.104 31.1841 141.307 31.5131 140.444 31.5131C138.916 31.5789 137.588 30.3288 137.522 28.8157C137.522 28.7499 137.522 28.6841 137.522 28.6183C137.456 27.1051 138.717 25.7894 140.245 25.7236C140.311 25.7236 140.377 25.7236 140.444 25.7236Z" fill="white"/>
<path d="M147.35 29.2766H146.287V31.382H145.424V25.8556H147.814C148.744 25.7898 149.541 26.4477 149.607 27.3688C149.607 27.4346 149.607 27.5004 149.607 27.5662C149.674 28.3556 149.01 29.0793 148.213 29.2109L149.674 31.4477H148.678L147.35 29.2766ZM147.682 26.5793H146.287V28.553H147.682C148.213 28.553 148.678 28.1582 148.744 27.6319C148.744 27.1056 148.346 26.6451 147.814 26.5793C147.748 26.5793 147.748 26.5793 147.682 26.5793Z" fill="white"/>
<path d="M154.92 25.7236C156.58 25.7236 157.775 26.9736 157.775 28.6183C157.775 30.263 156.646 31.5131 154.92 31.5131C153.26 31.5131 152.131 30.263 152.131 28.6183C152.131 26.9736 153.26 25.7236 154.92 25.7236ZM154.92 26.5131C153.725 26.5131 152.994 27.4341 152.994 28.6183C152.994 29.8025 153.725 30.7237 154.92 30.7237C156.115 30.7237 156.845 29.8025 156.845 28.6183C156.845 27.4341 156.115 26.5131 154.92 26.5131Z" fill="white"/>
<path d="M160.43 25.8555H161.293V29.2108C161.293 30.1318 161.824 30.7896 162.82 30.7896C163.816 30.7896 164.347 30.1976 164.347 29.2108V25.8555H165.211V29.2108C165.211 30.5923 164.414 31.5134 162.887 31.5134C161.293 31.5134 160.496 30.5923 160.496 29.2108L160.43 25.8555Z" fill="white"/>
<path d="M168.066 25.8556H170.457C171.387 25.7898 172.183 26.4477 172.25 27.3688C172.25 27.4346 172.25 27.5004 172.25 27.5662C172.25 28.4872 171.519 29.2766 170.656 29.2766C170.59 29.2766 170.523 29.2766 170.523 29.2766H168.996V31.382H168.133V25.8556H168.066ZM170.324 26.5793H168.93V28.553H170.324C170.855 28.553 171.32 28.1582 171.387 27.6319C171.453 27.1056 170.988 26.6451 170.457 26.5793C170.391 26.5793 170.324 26.5793 170.324 26.5793Z" fill="white"/>
</svg>
